<svg xmlns="http://www.w3.org/2000/svg" xmlns:xlink="http://www.w3.org/1999/xlink" width="564" height="718" fill="none" xmlns:v="https://vecta.io/nano"><g clip-path="url(#I)"><path d="M486.934 2.186L79.416.331C59.217.239 39.808 8.176 25.46 22.394S2.999 55.948 2.907 76.147L-1.54 1053.61c-.088 20.2 7.85 39.6 22.067 53.95s33.551 22.46 53.749 22.56l407.518 1.85a76.16 76.16 0 0 0 53.952-22.07c14.347-14.21 22.461-33.55 22.557-53.75l4.447-977.44c.047-10.003-1.876-19.917-5.661-29.177a76.16 76.16 0 0 0-41.031-41.415c-9.224-3.871-19.121-5.886-29.124-5.932h0zm69.298 1046.884a73.84 73.84 0 0 1-3.68 22.73c-.171.55-.358 1.1-.56 1.64s-.389 1.09-.606 1.62c-.217.54-.295.82-.466 1.22a72.7 72.7 0 0 1-1.551 3.55c-.238.52-.486 1.03-.744 1.53l-1.084 2.13c-.371.7-.511.93-.774 1.41l-.851 1.53a76 76 0 0 1-2.551 4.01l-.88 1.24c-.309.41-.649.92-1.004 1.36s-.664.9-1.02 1.36a30.65 30.65 0 0 1-1.065 1.32c-.37.42-.725.88-1.111 1.31-.725.86-1.543 1.71-2.283 2.52-1.188 1.27-2.421 2.49-3.716 3.69l-1.156 1.03c-.894.8-1.803 1.53-2.727 2.33l-1.217.93c-1.355 1.01-2.741 2-4.158 2.97-.472.33-.949.63-1.432.91-.969.63-1.954 1.21-2.939 1.77a18.35 18.35 0 0 1-1.539.81c-1.539.87-3.231 1.67-4.892 2.4a32.42 32.42 0 0 1-1.323.58l-1.538.65-1.537.62c-1.215.44-2.43.87-3.659 1.25l-1.307.39c-1.537.47-3.258.89-4.933 1.25l-1.751.36-1.874.33a64.41 64.41 0 0 1-3.471.49h-.676-.491l-.199-.01c1.044-.1 2.088-.23 3.071-.41l1.536-.26 1.537-.28a80.36 80.36 0 0 0 4.517-1.08l1.537-.44c.969-.29 1.937-.61 2.89-.94 1.445-.52 2.86-1.08 4.26-1.69.461-.18.922-.39 1.384-.6l1.354-.66c.907-.44 1.8-.91 2.692-1.38a40.11 40.11 0 0 0 2.616-1.52l2.31-1.53.231-.15c1.247-.86 2.463-1.72 3.65-2.64a18.88 18.88 0 0 0 1.186-.93 65.42 65.42 0 0 0 3.236-2.76c2.584-2.36 4.981-4.92 7.172-7.65l.926-1.17c3.168-4.17 5.846-8.68 7.982-13.46.341-.77.667-1.53.962-2.33 1.542-3.84 2.716-7.82 3.508-11.88l.44-2.44a68.85 68.85 0 0 0 .799-10.12l4.446-977.311c.055-16.529-5.993-32.497-16.983-44.842a67.11 67.11 0 0 0-42.575-22.06l-1.795-.162-1.842-.116c-1.151-.005-2.271-.102-3.437-.108L79.39 9.526c-1.166-.005-2.302-.01-3.439.076a67.06 67.06 0 0 0-63.804 66.602L7.7 1053.65a67.07 67.07 0 0 0 16.847 44.67c10.905 12.33 25.958 20.21 42.297 22.15l-1.365-.13c-1.181-.14-2.332-.31-3.482-.52-6.866-1.2-13.527-3.37-19.787-6.44l-1.302-.64-3.261-1.79-1.454-.88a70.74 70.74 0 0 1-6.993-4.86l-1.193-.94c-1.178-.97-2.34-1.96-3.455-2.99l-1.07-1.03-1.238-1.21-1.207-1.23c-.26-.28-.519-.54-.764-.83-.244-.3-.657-.71-.962-1.07-1.883-2.12-3.641-4.35-5.265-6.68-.305-.42-.579-.83-.869-1.25-.884-1.31-1.707-2.63-2.499-4a18 18 0 0 1-.837-1.54 73.98 73.98 0 0 1-5.135-11.57c-.197-.55-.379-1.09-.545-1.64a75.54 75.54 0 0 1-2.156-8.48l-.392-1.66c-.685-4.14-1.02-8.34-1.002-12.53L5.025 76.172l.01-2.179.007-1.627c.005-1.197.149-2.363.277-3.544.003-.599.128-1.212.208-1.795.002-.338.095-.644.127-.966s.111-.767.174-1.166.19-1.212.315-1.81c.189-1.058.393-2.116.643-3.067.11-.521.25-1.027.375-1.533a73.49 73.49 0 0 1 1.295-4.599l.467-1.41.622-1.716.544-1.425c.186-.475.295-.766.466-1.149s.388-.934.59-1.379.295-.689.48-1.042.45-.996.713-1.532a45.86 45.86 0 0 1 1.316-2.603c.232-.444.48-.888.727-1.317l.867-1.531a75.56 75.56 0 0 1 7.014-9.868l1.127-1.315 1.311-1.452c.74-.779 1.542-1.528 2.252-2.308s1.65-1.604 2.513-2.383 1.726-1.527 2.62-2.245c.431-.366.894-.717 1.34-1.084.909-.702 1.833-1.389 2.788-2.059s1.879-1.311 2.864-1.936 1.955-1.235 2.971-1.798c.492-.305 1-.579 1.539-.852s1.015-.548 1.539-.822l1.538-.776 1.538-.76a54.51 54.51 0 0 1 3.214-1.367l1.538-.622h.154l1.537-.561 1.537-.53c.599-.181 1.184-.378 1.798-.544l1.706-.483 1.721-.437 1.736-.407c1.183-.256 2.351-.48 3.533-.675l1.782-.268a62.36 62.36 0 0 1 3.839-.443c1.013-.087 2.058-.159 3.071-.216l1.888.009 1.919.009 407.748 1.855 1.919.009 1.535.007c1.197.005 2.378.164 3.575.277l1.795.208 1.794.254 1.78.284c.583.095 1.165.22 1.748.33l1.733.376 1.533.36.337.094 1.534.391c.689.187 1.379.39 2.054.608l1.394.451c1.027.342 2.039.7 3.065 1.088.705.233 1.379.513 2.038.792l1.532.636c.536.233 1.057.465 1.532.728s1.041.496 1.531.759c3.709 1.822 7.249 3.97 10.577 6.418.414.278.811.587 1.209.896 1.53 1.112 2.875 2.254 4.236 3.473a43.94 43.94 0 0 1 1.788 1.62 70.81 70.81 0 0 1 6.814 7.107 41.59 41.59 0 0 1 1.084 1.356c.748.94 1.526 1.895 2.12 2.865.351.477.687.97 1.022 1.463a90.56 90.56 0 0 1 1.646 2.571l.792 1.324 1.401 2.539a20.59 20.59 0 0 1 .639 1.246c.745 1.431 1.414 2.877 2.067 4.353l.471 1.169c.607 1.538 1.153 2.968 1.668 4.49.197.569.363 1.122.545 1.691 1.002 3.277 1.776 6.619 2.318 10.003-.001.353.12.722.164 1.106s.163 1.183.237 1.782a63.13 63.13 0 0 1 .192 1.812l.16 1.812c-.005 1.12.113 2.242.138 3.378l-.009 2.164-4.4 970.339z" fill="#00000c"/><path d="M67.213 1120.54l-1.78-.2-3.482-.52c-6.866-1.2-13.527-3.37-19.787-6.44l-1.302-.64-3.261-1.79-1.454-.89a68.99 68.99 0 0 1-6.993-4.85l-1.193-.94c-1.178-.97-2.34-1.96-3.455-2.99l-1.07-1.04-1.238-1.2-1.207-1.23c-.26-.28-.519-.54-.764-.83-.244-.3-.657-.71-.962-1.07a72.56 72.56 0 0 1-5.265-6.68c-.305-.42-.579-.83-.869-1.25-.884-1.31-1.707-2.63-2.499-4a18 18 0 0 1-.837-1.54 73.98 73.98 0 0 1-5.135-11.57 34.18 34.18 0 0 1-.545-1.64c-.882-2.79-1.602-5.62-2.156-8.48l-.345-1.66a74.97 74.97 0 0 1-1.002-12.53L4.994 83.232c.112-19.034 7.541-37.295 20.747-51.002S56.92 10.421 75.936 9.602a67.06 67.06 0 0 0-63.803 66.602L7.685 1053.65c-.058 16.52 5.984 32.49 16.969 44.83a67.1 67.1 0 0 0 42.558 22.06h0z" fill="url(#A)"/><path d="M560.615 85.761l-4.383 963.309a73.81 73.81 0 0 1-3.679 22.73l-.56 1.64s-.389 1.09-.606 1.62l-.466 1.22-1.552 3.55a34.91 34.91 0 0 1-.743 1.53l-1.084 2.13-.774 1.41-.851 1.53a76.65 76.65 0 0 1-2.551 4.01l-.881 1.24-1.004 1.36-1.019 1.36-1.065 1.32-1.111 1.31-2.284 2.52-3.716 3.69-1.155 1.03-2.728 2.33-1.217.93-4.158 2.97-1.431.91-2.94 1.77-1.539.81c-1.538.87-3.231 1.67-4.892 2.4a33.01 33.01 0 0 1-1.322.58l-1.538.65-1.538.62-3.659 1.25-1.306.39-4.933 1.25-1.752.36-1.874.33-3.471.49-1.781.18a67.08 67.08 0 0 0 60.164-66.35l4.448-977.472a67.1 67.1 0 0 0-17.595-45.51C524.7 20.735 509.074 13.04 492.295 11.604c18.641 1.467 36.039 9.923 48.708 23.675s19.675 31.783 19.612 50.482h0z" fill="url(#B)"/><path d="M560.647 78.7l-.032 7.061a74.14 74.14 0 0 0-19.044-49.835c-12.312-13.673-29.269-22.279-47.574-24.145l-1.795-.162-1.841-.116c-1.151-.005-2.271-.103-3.438-.108L79.389 9.541c-1.166-.005-2.302-.01-3.439.076-19.016.82-36.989 8.922-50.195 22.629S5.121 64.214 5.008 83.248l.032-7.061.01-2.179.007-1.627c.005-1.197.149-2.363.277-3.544.003-.599.128-1.212.208-1.795.002-.338.095-.644.127-.966s.111-.767.174-1.166.19-1.212.315-1.81c.189-1.058.393-2.116.643-3.067.11-.521.25-1.027.375-1.533.375-1.533.812-3.066 1.295-4.599l.467-1.41.622-1.716.544-1.425c.186-.475.295-.766.466-1.149s.388-.934.59-1.379.295-.689.481-1.042.45-.996.713-1.532c.403-.873.852-1.746 1.317-2.603.232-.444.48-.888.727-1.317l.867-1.531c2.07-3.472 4.416-6.772 7.013-9.868l1.127-1.315 1.311-1.452c.74-.779 1.542-1.528 2.252-2.308s1.65-1.604 2.513-2.383 1.726-1.527 2.62-2.244c.431-.366.894-.717 1.34-1.084a76.82 76.82 0 0 1 2.788-2.059c.955-.671 1.879-1.311 2.864-1.936s1.955-1.234 2.971-1.798c.493-.305 1-.579 1.539-.853s1.015-.548 1.539-.822l1.538-.776 1.538-.76c1.046-.486 2.123-.942 3.214-1.367l1.538-.622.154.001 1.537-.561 1.537-.53c.599-.181 1.184-.378 1.798-.544l1.706-.483 1.721-.437 1.736-.407c1.183-.256 2.351-.48 3.533-.675l1.782-.268c1.26-.178 2.55-.341 3.839-.443a103.22 103.22 0 0 1 3.071-.216l1.888.009 1.919.009 407.733 1.855 1.919.009 1.534.007c1.198.005 2.379.164 3.576.277l1.794.208 1.795.254 1.779.284c.583.095 1.166.22 1.749.33l1.733.376 1.533.36.337.094 1.533.391a45.11 45.11 0 0 1 2.054.608l1.395.451c1.027.342 2.038.7 3.065 1.088.705.233 1.379.513 2.038.792l1.532.636c.536.233 1.057.465 1.532.728s1.041.496 1.531.759c3.709 1.822 7.248 3.97 10.577 6.418.413.278.811.587 1.209.896 1.53 1.112 2.875 2.254 4.236 3.473.611.525 1.208 1.065 1.788 1.62 2.433 2.203 4.71 4.573 6.814 7.092.381.462.733.894 1.084 1.356.747.94 1.526 1.895 2.12 2.865.351.477.686.97 1.022 1.463a92.84 92.84 0 0 1 1.646 2.571l.792 1.324 1.401 2.539a20.59 20.59 0 0 1 .639 1.246c.745 1.431 1.414 2.877 2.067 4.353l.471 1.169c.607 1.538 1.153 2.968 1.668 4.49.197.569.363 1.122.545 1.691a74.52 74.52 0 0 1 2.318 10.003c-.002.353.119.722.164 1.106s.163 1.183.237 1.782.133 1.198.192 1.812l.16 1.812c-.005 1.12.113 2.242.138 3.377l.006 2.134z" fill="url(#C)"/><path d="M490.347 11.487l-3.438-.108L79.391 9.525c-1.166-.005-2.302-.01-3.439.076a67.06 67.06 0 0 0-63.803 66.602L7.701 1053.65c-.058 16.84 6.22 33.08 17.587 45.5a67.06 67.06 0 0 0 43.767 21.55l1.841.11c1.151.01 2.302.11 3.484.11l407.457 1.86c1.166 0 2.302.01 3.454-.08l1.842-.1a67.07 67.07 0 0 0 43.967-21.15c11.482-12.31 17.911-28.5 18.01-45.34l4.447-977.442a67.06 67.06 0 0 0-18.22-46.184c-11.759-12.497-27.86-20.011-44.99-20.996zm53.114 1044.603a61.6 61.6 0 0 1-16.529 41.44c-10.494 11.27-24.826 18.19-40.172 19.42-.568 0-1.152.09-1.72.1-1.059 0-2.118-.01-3.177-.01l-407.503-1.86c-1.074 0-2.149-.01-3.208-.01-.568-.01-1.151-.01-1.673-.12-15.342-1.35-29.619-8.41-40.017-19.77s-16.163-26.2-16.159-41.61l4.447-977.44c.064-15.692 6.144-30.763 16.987-42.107S60.36 16.024 76.034 15.251h.169l3.162.014 407.503 1.854 3.162.014h.092a61.29 61.29 0 0 1 57.787 61.507l-4.447 977.448z" fill="#000"/><path d="M547.889 79.026l-4.447 977.464a60.77 60.77 0 0 1-8.149 30.09l-1.546 2.42-2.395 3.46a63.8 63.8 0 0 1-7.93 8.82 63.75 63.75 0 0 0 8.571-31.66l.051-11.19.009-2.03 4.448-977.518.009-2.072.05-11.021c.074-11.192-2.786-22.208-8.296-31.949a61.22 61.22 0 0 1 14.559 20.532c3.378 7.778 5.104 16.174 5.066 24.654h0z" fill="url(#D)"/><g fill="#000"><path d="M489.803 22.782l-.261-.001-2.702-.012-407.502-1.854-2.763-.013-.276-.001-.138-.001a55.64 55.64 0 0 0-52.732 55.356L18.981 1053.7c-.008 13.98 5.224 27.46 14.665 37.78 9.441 10.31 22.405 16.71 36.334 17.94.414 0 .89 0 1.35.1h.154c.967 0 1.934.09 2.916.09l407.488 1.85c.967.01 1.919.01 2.871-.06h.168c.476 0 .952.01 1.413-.08a55.97 55.97 0 0 0 36.461-17.63 55.89 55.89 0 0 0 14.981-37.63l4.447-977.444a55.63 55.63 0 0 0-15.073-38.376c-9.755-10.389-23.125-16.638-37.352-17.458h0zm33.151 1033.168a40.97 40.97 0 0 1-10.937 27.67c-6.985 7.53-16.542 12.15-26.778 12.97h-.598l-.614-.01h-2.072l-407.503-1.86c-.706 0-1.428-.01-2.118-.01h-.583-.552c-10.213-.91-19.717-5.6-26.638-13.17a40.98 40.98 0 0 1-10.751-27.7l4.448-977.517A40.83 40.83 0 0 1 76.553 35.76l.368.002.553.002 1.796.008 407.503 1.854 1.842.008.337.002c10.435.598 20.241 5.179 27.396 12.798s11.111 17.693 11.053 28.145l-4.447 977.371z"/><path d="M421.554 37.192l-.024 5.341a32.48 32.48 0 0 1-32.626 32.331l-212.125-.965c-4.265-.019-8.484-.879-12.418-2.529s-7.502-4.059-10.504-7.088-5.379-6.621-6.993-10.569a32.49 32.49 0 0 1-2.416-12.44l.025-5.341 277.081 1.261z"/><path d="M421.554 37.192l-.024 5.326c-.017 4.266-.875 8.488-2.524 12.423a32.49 32.49 0 0 1-7.088 10.51c-3.03 3.004-6.622 5.381-10.57 6.996a32.48 32.48 0 0 1-12.444 2.417l-212.125-.965a32.48 32.48 0 0 1-12.421-2.53 32.49 32.49 0 0 1-10.507-7.092 32.48 32.48 0 0 1-6.991-10.574c-1.614-3.95-2.433-8.179-2.412-12.445l.025-5.326 277.081 1.261z"/></g><path d="M547.889 79.025l.001-.092a61.26 61.26 0 0 0-57.787-61.492l-.108-.001-3.146-.014-407.457-1.854-3.162-.014h-.169c-1.335-.006-2.626.172-3.931.32-12.831 1.439-24.873 6.915-34.392 15.638a63.96 63.96 0 0 0-8.587 31.872l-.06 13.185a49.98 49.98 0 0 1 47.241-49.701l.276.001.368.002 2.364.011 407.503 1.854 2.134.01.506.002c12.427.708 24.142 6.028 32.852 14.92a49.97 49.97 0 0 1 14.237 33.153l.05-11.021c.074-11.192-2.787-22.207-8.297-31.949 6.21 5.765 11.155 12.757 14.523 20.532a61.22 61.22 0 0 1 5.041 24.638h0z" fill="url(#E)"/><path d="M32.914 1098.75a61.29 61.29 0 0 1-14.514-20.49 61.38 61.38 0 0 1-5.097-24.59L17.75 76.23a61.24 61.24 0 0 1 5.255-24.605c3.436-7.75 8.443-14.702 14.704-20.416a64.04 64.04 0 0 0-8.587 31.872L24.555 1066.87c-.064 11.17 2.819 22.17 8.359 31.88h0z" fill="url(#F)"/><path d="M547.89 79.026l-4.447 977.465a60.77 60.77 0 0 1-8.149 30.09l-1.546 2.42-2.395 3.46c-2.366 3.23-5.043 6.22-7.992 8.92l.001-.1a63.76 63.76 0 0 0 8.571-31.66L536.5 65.789c.074-11.192-2.787-22.207-8.297-31.949 6.234 5.756 11.204 12.745 14.593 20.524s5.124 16.177 5.094 24.662h0z" fill="url(#G)"/><path d="M311.083 41.14l-59.601-.271a2.72 2.72 0 0 0-2.729 2.704l-.006 1.397c-.007 1.5 1.204 2.722 2.704 2.729l59.601.271a2.72 2.72 0 0 0 2.729-2.704l.006-1.397c.007-1.5-1.204-2.722-2.704-2.729z" fill="url(#H)"/><path d="M489.476 37.501l-.369-.002-.552-.003-1.796-.008-58.802-.268c-1.63.074-3.178.732-4.361 1.855s-1.923 2.633-2.083 4.256l-.003.691-.001.092c-.432 8.338-4.059 16.189-10.128 21.924a32.48 32.48 0 0 1-22.461 8.872l-212.155-.965a32.48 32.48 0 0 1-32.307-31.091l.001-.092.003-.691a6.79 6.79 0 0 0-2.045-4.275c-1.173-1.133-2.715-1.805-4.343-1.894l-58.833-.268-1.796-.008-.553-.002-.368-.002a40.83 40.83 0 0 0-38.297 40.563l-4.448 977.565a41.04 41.04 0 0 0 10.755 27.7c6.921 7.56 16.423 12.26 26.634 13.16l.553.01h.583l2.118.01 407.519 1.85 2.118.01.583.01h.553c10.219-.81 19.763-5.43 26.752-12.93a41 41 0 0 0 11.007-27.59l4.448-977.508a40.83 40.83 0 0 0-37.926-40.971z" fill="#fff"/></g><defs><linearGradient id="A" x1="2.803" y1="564.748" x2="11.015" y2="564.786" xlink:href="#J"><stop stop-color="#666"/><stop offset="1"/></linearGradient><linearGradient id="B" x1="551.502" y1="567.307" x2="559.637" y2="567.344" xlink:href="#J"><stop/><stop offset="1" stop-color="#666"/></linearGradient><linearGradient id="C" x1="282.883" y1="65.418" x2="283.252" y2="-15.702" xlink:href="#J"><stop/><stop offset="1" stop-color="gray"/></linearGradient><linearGradient id="D" x1="525.912" y1="567.559" x2="545.666" y2="567.649" xlink:href="#J"><stop stop-color="#f0f0f0"/><stop offset=".14" stop-color="#b7b7b7"/><stop offset=".27" stop-color="#888"/><stop offset=".4" stop-color="#636363"/><stop offset=".51" stop-color="#494949"/><stop offset=".62" stop-color="#393939"/><stop offset=".7" stop-color="#333"/></linearGradient><linearGradient id="E" x1="173621" y1="10731.8" x2="348991" y2="11529.7" xlink:href="#J"><stop stop-color="#1a1a1a"/><stop offset=".12" stop-color="#454545"/><stop offset=".23" stop-color="#666"/><stop offset=".34" stop-color="#7e7e7e"/><stop offset=".44" stop-color="#8d8d8d"/><stop offset=".52" stop-color="#929292"/><stop offset=".59" stop-color="#8b8b8b"/><stop offset=".7" stop-color="#767676"/><stop offset=".82" stop-color="#545454"/><stop offset=".97" stop-color="#252525"/><stop offset="1" stop-color="#1a1a1a"/></linearGradient><linearGradient id="F" x1="15.527" y1="564.899" x2="27.253" y2="564.952" xlink:href="#J"><stop stop-color="#c8c8c8"/><stop offset=".21" stop-color="#a0a0a0"/><stop offset=".59" stop-color="#5d5d5d"/><stop offset=".86" stop-color="#343434"/><stop offset="1" stop-color="#242424"/></linearGradient><linearGradient id="G" x1="525.867" y1="567.62" x2="545.667" y2="567.71" xlink:href="#J"><stop stop-color="#242424"/><stop offset=".14" stop-color="#343434"/><stop offset=".41" stop-color="#5d5d5d"/><stop offset=".79" stop-color="#a0a0a0"/><stop offset="1" stop-color="#c8c8c8"/></linearGradient><linearGradient id="H" x1="248.75" y1="44.264" x2="313.784" y2="44.56" xlink:href="#J"><stop stop-color="#333"/><stop offset=".09" stop-color="#2b2b2b"/><stop offset=".29" stop-color="#1e1e1e"/><stop offset=".48" stop-color="#1a1a1a"/><stop offset=".79" stop-color="#1c1c1c"/><stop offset=".9" stop-color="#232323"/><stop offset=".98" stop-color="#2e2e2e"/><stop offset="1" stop-color="#333"/></linearGradient><clipPath id="I"><path fill="#fff" transform="matrix(.99999 .00455 -.00455 .99999 3.25391 0)" d="M0 0h559.848v715.321H0z"/></clipPath><linearGradient id="J" gradientUnits="userSpaceOnUse"/></defs></svg>