<svg width="36" height="29" viewBox="0 0 36 29" fill="none" xmlns="http://www.w3.org/2000/svg">
<g filter="url(#filter0_d_911_52)">
<path d="M6 15V7H3C2.20435 7 1.44129 7.31607 0.87868 7.87868C0.316071 8.44129 0 9.20435 0 10V28C0.0014883 28.1857 0.054667 28.3674 0.153576 28.5245C0.252486 28.6817 0.393217 28.8083 0.56 28.89C0.720679 28.9631 0.897837 28.9923 1.07347 28.9747C1.24911 28.9572 1.41697 28.8934 1.56 28.79L6.71 25H20.15C20.529 25.0112 20.9063 24.9445 21.2585 24.8039C21.6106 24.6634 21.9302 24.4521 22.1974 24.183C22.4645 23.914 22.6736 23.5929 22.8117 23.2398C22.9498 22.8867 23.0139 22.5089 23 22.13V21H12C10.4087 21 8.88258 20.3679 7.75736 19.2426C6.63214 18.1174 6 16.5913 6 15V15Z" fill="#FF5543"/>
<path d="M29 0H12C11.2044 0 10.4413 0.316071 9.87868 0.87868C9.31607 1.44129 9 2.20435 9 3V15C9 15.7956 9.31607 16.5587 9.87868 17.1213C10.4413 17.6839 11.2044 18 12 18H25.55L30.33 21.71C30.4721 21.8151 30.6395 21.8806 30.8152 21.8999C30.9908 21.9192 31.1685 21.8917 31.33 21.82C31.5002 21.739 31.644 21.6115 31.7448 21.4522C31.8457 21.293 31.8995 21.1085 31.9 20.92V3C31.9004 2.22138 31.5981 1.47309 31.057 0.913267C30.5158 0.353446 29.7782 0.025954 29 0Z" fill="#FF5543"/>
</g>
<defs>
<filter id="filter0_d_911_52" x="-4" y="0" width="39.9004" height="36.9795" filterUnits="userSpaceOnUse" color-interpolation-filters="sRGB">
<feFlood flood-opacity="0" result="BackgroundImageFix"/>
<feColorMatrix in="SourceAlpha" type="matrix" values="0 0 0 0 0 0 0 0 0 0 0 0 0 0 0 0 0 0 127 0" result="hardAlpha"/>
<feOffset dy="4"/>
<feGaussianBlur stdDeviation="2"/>
<feComposite in2="hardAlpha" operator="out"/>
<feColorMatrix type="matrix" values="0 0 0 0 0 0 0 0 0 0 0 0 0 0 0 0 0 0 0.25 0"/>
<feBlend mode="normal" in2="BackgroundImageFix" result="effect1_dropShadow_911_52"/>
<feBlend mode="normal" in="SourceGraphic" in2="effect1_dropShadow_911_52" result="shape"/>
</filter>
</defs>
</svg>
