<svg width="23" height="28" viewBox="0 0 23 28" fill="none" xmlns="http://www.w3.org/2000/svg">
<path d="M9 0C7.40927 0.00185261 5.88422 0.634588 4.75941 1.75941C3.63459 2.88422 3.00185 4.40927 3 6H5C5 4.93913 5.42143 3.92172 6.17157 3.17157C6.92172 2.42143 7.93913 2 9 2C10.0609 2 11.0783 2.42143 11.8284 3.17157C12.5786 3.92172 13 4.93913 13 6H15C14.9981 4.40927 14.3654 2.88422 13.2406 1.75941C12.1158 0.634588 10.5907 0.00185261 9 0V0Z" fill="#8BC2C7"/>
<path d="M16.9992 28H12.5592C11.5559 27.9997 10.5894 27.6225 9.85119 26.943L0.651189 18.477C0.436386 18.2806 0.26698 18.0398 0.154774 17.7713C0.0425677 17.5027 -0.00974108 17.2129 0.00149185 16.9221C0.0127248 16.6313 0.0872295 16.3464 0.219815 16.0874C0.352401 15.8283 0.539879 15.6012 0.769189 15.422C1.16204 15.1342 1.64365 14.9938 2.12963 15.0254C2.61561 15.057 3.07496 15.2587 3.42719 15.595L6.99919 18.857V6C6.99919 5.46957 7.2099 4.96086 7.58498 4.58579C7.96005 4.21071 8.46876 4 8.99919 4C9.52962 4 10.0383 4.21071 10.4134 4.58579C10.7885 4.96086 10.9992 5.46957 10.9992 6V13C10.9992 12.4696 11.2099 11.9609 11.585 11.5858C11.96 11.2107 12.4688 11 12.9992 11C13.5296 11 14.0383 11.2107 14.4134 11.5858C14.7885 11.9609 14.9992 12.4696 14.9992 13V14C14.9992 13.4696 15.2099 12.9609 15.585 12.5858C15.96 12.2107 16.4688 12 16.9992 12C17.5296 12 18.0383 12.2107 18.4134 12.5858C18.7885 12.9609 18.9992 13.4696 18.9992 14V15C18.9992 14.4696 19.2099 13.9609 19.585 13.5858C19.96 13.2107 20.4688 13 20.9992 13C21.5296 13 22.0383 13.2107 22.4134 13.5858C22.7885 13.9609 22.9992 14.4696 22.9992 15V22C22.9992 23.5913 22.367 25.1174 21.2418 26.2426C20.1166 27.3679 18.5905 28 16.9992 28Z" fill="#8BC2C7"/>
</svg>
